<?xml version="1.0" encoding="us-ascii" standalone="no"?><svg xmlns="http://www.w3.org/2000/svg" xmlns:xlink="http://www.w3.org/1999/xlink" contentStyleType="text/css" height="363px" preserveAspectRatio="none" style="width:345px;height:363px;background:#FFFFFF;" version="1.1" viewBox="0 0 345 363" width="345px" zoomAndPan="magnify"><defs/><g><!--class Observer--><g id="elem_Observer"><rect codeLine="2" fill="#F1F1F1" height="65.6094" id="Observer" rx="2.5" ry="2.5" style="stroke:#181818;stroke-width:0.5;" width="90" x="34" y="24.5"/><ellipse cx="49" cy="40.5" fill="#B4A7E5" rx="11" ry="11" style="stroke:#181818;stroke-width:1.0;"/><path d="M49.9531,37.1406 L49.9531,43.7969 L51.6719,43.7969 Q52.2813,43.7969 52.5469,44.0313 Q52.8125,44.2656 52.8125,44.6563 Q52.8125,45.0313 52.5469,45.2656 Q52.2813,45.5 51.6719,45.5 L46.5313,45.5 Q45.9219,45.5 45.6563,45.2656 Q45.3906,45.0313 45.3906,44.6406 Q45.3906,44.2656 45.6563,44.0313 Q45.9219,43.7969 46.5313,43.7969 L48.25,43.7969 L48.25,37.1406 L46.5313,37.1406 Q45.9219,37.1406 45.6563,36.9063 Q45.3906,36.6719 45.3906,36.2813 Q45.3906,35.9063 45.6563,35.6719 Q45.9219,35.4375 46.5313,35.4375 L51.6719,35.4375 Q52.2813,35.4375 52.5469,35.6719 Q52.8125,35.9063 52.8125,36.2813 Q52.8125,36.6719 52.5469,36.9063 Q52.2813,37.1406 51.6719,37.1406 L49.9531,37.1406 Z " fill="#000000"/><text fill="#000000" font-family="sans-serif" font-size="14" font-style="italic" lengthAdjust="spacing" textLength="58" x="63" y="46.2285">Observer</text><line style="stroke:#181818;stroke-width:0.5;" x1="35" x2="123" y1="56.5" y2="56.5"/><line style="stroke:#181818;stroke-width:0.5;" x1="35" x2="123" y1="64.5" y2="64.5"/><ellipse cx="45" cy="78.8047" fill="#84BE84" rx="3" ry="3" style="stroke:#038048;stroke-width:1.0;"/><text fill="#000000" font-family="sans-serif" font-size="14" lengthAdjust="spacing" textLength="38" x="54" y="83.0332">&#26356;&#26032;()</text></g><!--class Subject--><g id="elem_Subject"><rect codeLine="6" fill="#F1F1F1" height="100.8281" id="Subject" rx="2.5" ry="2.5" style="stroke:#181818;stroke-width:0.5;" width="162" x="170" y="7"/><ellipse cx="223.25" cy="23" fill="#B4A7E5" rx="11" ry="11" style="stroke:#181818;stroke-width:1.0;"/><path d="M224.2031,19.6406 L224.2031,26.2969 L225.9219,26.2969 Q226.5313,26.2969 226.7969,26.5313 Q227.0625,26.7656 227.0625,27.1563 Q227.0625,27.5313 226.7969,27.7656 Q226.5313,28 225.9219,28 L220.7813,28 Q220.1719,28 219.9063,27.7656 Q219.6406,27.5313 219.6406,27.1406 Q219.6406,26.7656 219.9063,26.5313 Q220.1719,26.2969 220.7813,26.2969 L222.5,26.2969 L222.5,19.6406 L220.7813,19.6406 Q220.1719,19.6406 219.9063,19.4063 Q219.6406,19.1719 219.6406,18.7813 Q219.6406,18.4063 219.9063,18.1719 Q220.1719,17.9375 220.7813,17.9375 L225.9219,17.9375 Q226.5313,17.9375 226.7969,18.1719 Q227.0625,18.4063 227.0625,18.7813 Q227.0625,19.1719 226.7969,19.4063 Q226.5313,19.6406 225.9219,19.6406 L224.2031,19.6406 Z " fill="#000000"/><text fill="#000000" font-family="sans-serif" font-size="14" font-style="italic" lengthAdjust="spacing" textLength="47" x="243.75" y="28.7285">Subject</text><line style="stroke:#181818;stroke-width:0.5;" x1="171" x2="331" y1="39" y2="39"/><rect fill="none" height="6" style="stroke:#C82930;stroke-width:1.0;" width="6" x="178" y="50.3047"/><text fill="#000000" font-family="sans-serif" font-size="14" lengthAdjust="spacing" textLength="73" x="190" y="57.5332">observerlist</text><line style="stroke:#181818;stroke-width:0.5;" x1="171" x2="331" y1="64.6094" y2="64.6094"/><ellipse cx="181" cy="78.9141" fill="#84BE84" rx="3" ry="3" style="stroke:#038048;stroke-width:1.0;"/><text fill="#000000" font-family="sans-serif" font-size="14" lengthAdjust="spacing" textLength="136" x="190" y="83.1426">&#12458;&#12502;&#12470;&#12540;&#12496;&#12540;&#12398;&#36861;&#21152;()</text><ellipse cx="181" cy="96.5234" fill="#84BE84" rx="3" ry="3" style="stroke:#038048;stroke-width:1.0;"/><text fill="#000000" font-family="sans-serif" font-size="14" lengthAdjust="spacing" textLength="136" x="190" y="100.752">&#12458;&#12502;&#12470;&#12540;&#12496;&#12540;&#12398;&#21066;&#38500;()</text></g><!--class Bus--><g id="elem_Bus"><rect codeLine="12" fill="#F1F1F1" height="188.875" id="Bus" rx="2.5" ry="2.5" style="stroke:#181818;stroke-width:0.5;" width="162" x="176" y="168"/><ellipse cx="240.75" cy="184" fill="#ADD1B2" rx="11" ry="11" style="stroke:#181818;stroke-width:1.0;"/><path d="M243.5156,179.875 Q243.6719,179.6563 243.8594,179.5469 Q244.0469,179.4375 244.2656,179.4375 Q244.6406,179.4375 244.875,179.7031 Q245.1094,179.9531 245.1094,180.5625 L245.1094,182.0156 Q245.1094,182.625 244.875,182.8906 Q244.6406,183.1563 244.2656,183.1563 Q243.9219,183.1563 243.7188,182.9531 Q243.5156,182.7656 243.4063,182.25 Q243.3594,181.8906 243.1719,181.7031 Q242.8438,181.3281 242.2344,181.1094 Q241.625,180.8906 241,180.8906 Q240.2344,180.8906 239.5938,181.2188 Q238.9688,181.5469 238.4688,182.2969 Q237.9844,183.0469 237.9844,184.0781 L237.9844,185.1719 Q237.9844,186.4063 238.875,187.2344 Q239.7656,188.0469 241.3594,188.0469 Q242.2969,188.0469 242.9531,187.7969 Q243.3438,187.6406 243.7656,187.2031 Q244.0313,186.9375 244.1719,186.8594 Q244.3281,186.7813 244.5313,186.7813 Q244.8594,186.7813 245.1094,187.0469 Q245.375,187.2969 245.375,187.6406 Q245.375,187.9844 245.0313,188.3906 Q244.5313,188.9688 243.7344,189.2969 Q242.6563,189.75 241.3594,189.75 Q239.8438,189.75 238.6406,189.125 Q237.6563,188.625 236.9688,187.5625 Q236.2813,186.4844 236.2813,185.2031 L236.2813,184.0469 Q236.2813,182.7188 236.8906,181.5781 Q237.5156,180.4219 238.6094,179.8125 Q239.7031,179.1875 240.9375,179.1875 Q241.6719,179.1875 242.3125,179.3594 Q242.9688,179.5156 243.5156,179.875 Z " fill="#000000"/><text fill="#000000" font-family="sans-serif" font-size="14" lengthAdjust="spacing" textLength="24" x="261.25" y="189.7285">Bus</text><line style="stroke:#181818;stroke-width:0.5;" x1="177" x2="337" y1="200" y2="200"/><rect fill="none" height="6" style="stroke:#C82930;stroke-width:1.0;" width="6" x="184" y="211.3047"/><text fill="#000000" font-family="sans-serif" font-size="14" lengthAdjust="spacing" textLength="76" x="196" y="218.5332">busNumber:</text><rect fill="none" height="6" style="stroke:#C82930;stroke-width:1.0;" width="6" x="184" y="228.9141"/><text fill="#000000" font-family="sans-serif" font-size="14" lengthAdjust="spacing" textLength="42" x="196" y="236.1426">status:</text><line style="stroke:#181818;stroke-width:0.5;" x1="177" x2="337" y1="243.2188" y2="243.2188"/><ellipse cx="187" cy="257.5234" fill="#84BE84" rx="3" ry="3" style="stroke:#038048;stroke-width:1.0;"/><text fill="#000000" font-family="sans-serif" font-size="14" lengthAdjust="spacing" textLength="136" x="196" y="261.752">&#12458;&#12502;&#12470;&#12540;&#12496;&#12540;&#12398;&#36861;&#21152;()</text><ellipse cx="187" cy="275.1328" fill="#84BE84" rx="3" ry="3" style="stroke:#038048;stroke-width:1.0;"/><text fill="#000000" font-family="sans-serif" font-size="14" lengthAdjust="spacing" textLength="136" x="196" y="279.3613">&#12458;&#12502;&#12470;&#12540;&#12496;&#12540;&#12398;&#21066;&#38500;()</text><ellipse cx="187" cy="292.7422" fill="#84BE84" rx="3" ry="3" style="stroke:#038048;stroke-width:1.0;"/><text fill="#000000" font-family="sans-serif" font-size="14" lengthAdjust="spacing" textLength="136" x="196" y="296.9707">&#12458;&#12502;&#12470;&#12540;&#12496;&#12540;&#12395;&#36890;&#30693;()</text><ellipse cx="187" cy="310.3516" fill="#84BE84" rx="3" ry="3" style="stroke:#038048;stroke-width:1.0;"/><text fill="#000000" font-family="sans-serif" font-size="14" lengthAdjust="spacing" textLength="90" x="196" y="314.5801">status&#12398;&#35373;&#23450;()</text><ellipse cx="187" cy="327.9609" fill="#84BE84" rx="3" ry="3" style="stroke:#038048;stroke-width:1.0;"/><text fill="#000000" font-family="sans-serif" font-size="14" lengthAdjust="spacing" textLength="90" x="196" y="332.1895">status&#12398;&#21462;&#24471;()</text><ellipse cx="187" cy="345.5703" fill="#84BE84" rx="3" ry="3" style="stroke:#038048;stroke-width:1.0;"/><text fill="#000000" font-family="sans-serif" font-size="14" lengthAdjust="spacing" textLength="124" x="196" y="349.7988">busNumber&#12398;&#21462;&#24471;()</text></g><!--class BusManager--><g id="elem_BusManager"><rect codeLine="23" fill="#F1F1F1" height="83.2188" id="BusManager" rx="2.5" ry="2.5" style="stroke:#181818;stroke-width:0.5;" width="134" x="7" y="221"/><ellipse cx="31.9" cy="237" fill="#ADD1B2" rx="11" ry="11" style="stroke:#181818;stroke-width:1.0;"/><path d="M34.6656,232.875 Q34.8219,232.6563 35.0094,232.5469 Q35.1969,232.4375 35.4156,232.4375 Q35.7906,232.4375 36.025,232.7031 Q36.2594,232.9531 36.2594,233.5625 L36.2594,235.0156 Q36.2594,235.625 36.025,235.8906 Q35.7906,236.1563 35.4156,236.1563 Q35.0719,236.1563 34.8688,235.9531 Q34.6656,235.7656 34.5563,235.25 Q34.5094,234.8906 34.3219,234.7031 Q33.9938,234.3281 33.3844,234.1094 Q32.775,233.8906 32.15,233.8906 Q31.3844,233.8906 30.7438,234.2188 Q30.1188,234.5469 29.6188,235.2969 Q29.1344,236.0469 29.1344,237.0781 L29.1344,238.1719 Q29.1344,239.4063 30.025,240.2344 Q30.9156,241.0469 32.5094,241.0469 Q33.4469,241.0469 34.1031,240.7969 Q34.4938,240.6406 34.9156,240.2031 Q35.1813,239.9375 35.3219,239.8594 Q35.4781,239.7813 35.6813,239.7813 Q36.0094,239.7813 36.2594,240.0469 Q36.525,240.2969 36.525,240.6406 Q36.525,240.9844 36.1813,241.3906 Q35.6813,241.9688 34.8844,242.2969 Q33.8063,242.75 32.5094,242.75 Q30.9938,242.75 29.7906,242.125 Q28.8063,241.625 28.1188,240.5625 Q27.4313,239.4844 27.4313,238.2031 L27.4313,237.0469 Q27.4313,235.7188 28.0406,234.5781 Q28.6656,233.4219 29.7594,232.8125 Q30.8531,232.1875 32.0875,232.1875 Q32.8219,232.1875 33.4625,232.3594 Q34.1188,232.5156 34.6656,232.875 Z " fill="#000000"/><text fill="#000000" font-family="sans-serif" font-size="14" lengthAdjust="spacing" textLength="80" x="48.1" y="242.7285">BusManager</text><line style="stroke:#181818;stroke-width:0.5;" x1="8" x2="140" y1="253" y2="253"/><line style="stroke:#181818;stroke-width:0.5;" x1="8" x2="140" y1="261" y2="261"/><ellipse cx="18" cy="275.3047" fill="#84BE84" rx="3" ry="3" style="stroke:#038048;stroke-width:1.0;"/><text fill="#000000" font-family="sans-serif" font-size="14" lengthAdjust="spacing" textLength="38" x="27" y="279.5332">&#26356;&#26032;()</text><ellipse cx="18" cy="292.9141" fill="#84BE84" rx="3" ry="3" style="stroke:#038048;stroke-width:1.0;"/><text fill="#000000" font-family="sans-serif" font-size="14" lengthAdjust="spacing" textLength="108" x="27" y="297.1426">&#12496;&#12473;&#12398;&#29366;&#24907;&#21462;&#24471;()</text></g><!--reverse link Subject to Bus--><g id="link_Subject_Bus"><path d="M252.9974,126.1523 C253.5274,144.2323 253.62,147.31 254.23,167.94 " fill="none" id="Subject-backto-Bus" style="stroke:#181818;stroke-width:1.0;"/><polygon fill="none" points="252.47,108.16,247,126.3281,258.9949,125.9765,252.47,108.16" style="stroke:#181818;stroke-width:1.0;"/></g><!--reverse link Observer to BusManager--><g id="link_Observer_BusManager"><path d="M77.7654,108.6645 C76.8954,143.8745 75.95,182.43 75,220.73 " fill="none" id="Observer-backto-BusManager" style="stroke:#181818;stroke-width:1.0;stroke-dasharray:7.0,7.0;"/><polygon fill="none" points="78.21,90.67,71.7672,108.5163,83.7635,108.8127,78.21,90.67" style="stroke:#181818;stroke-width:1.0;"/></g><!--link Observer to Subject--><g id="link_Observer_Subject"><path codeLine="28" d="M130.02,57.5 C145.23,57.5 142.44,57.5 157.65,57.5 " fill="none" id="Observer-Subject" style="stroke:#181818;stroke-width:1.0;"/><polygon fill="#181818" points="124.02,57.5,133.02,61.5,129.02,57.5,133.02,53.5,124.02,57.5" style="stroke:#181818;stroke-width:1.0;"/><polygon fill="none" points="169.65,57.5,163.65,53.5,157.65,57.5,163.65,61.5,169.65,57.5" style="stroke:#181818;stroke-width:1.0;"/></g><!--SRC=[oymhIIrAIqnELV1FAaujAaijKgZcKW02xMUpjpoRja53awkMYoiJhYguD2ahDRa4gaWt7wef9xEu1ABjSTEgnytJ7ZTjUzoyvt7p113PkEx5_hrFknO0pSAjv6bdrykPIo3M9USa5XShE9KMAwHMbAJcfHIZMvjKMknNcfkKMcG5uHUN99QK5bifKCa9E9MiVjamw_dyfJ0b46j1XgzO-tJTB0pXf_tJdkwR3XE6EnfP1jctlebvYUd02CZCBSX9pKtDAod67IaG9mATrRGJQDpphctFMhkH3OLhjD4joapFAD7DXuKX5m00]--></g></svg>